<svg xmlns="http://www.w3.org/2000/svg" viewBox="0 0 48 48">
  <path fill="#F7DF1E" d="M0,0H48V48H0Z"/>
  <path d="M24,35c-4.4,0-8-3.6-8-8s3.6-8,8-8,8,3.6,8,8-3.6,8-8,8Zm0-14c-3.3,0-6,2.7-6,6s2.7,6,6,6,6-2.7,6-6-2.7-6-6-6Zm-6,9.5h-2.5V20h2.5v14.5Zm6.5,0h-2.5V20h2.5v14.5Z"/>
  <path d="M34.5,29c-0.2,0.9-0.6,1.7-1.1,2.4s-1.1,1.3-1.9,1.7c-0.8,0.4-1.6,0.6-2.5,0.6c-1.3,0-2.4-0.4-3.3-1.2s-1.3-1.9-1.3-3.2c0-1.2,0.4-2.2,1.2-3s1.8-1.2,3.1-1.2c0.9,0,1.7,0.2,2.3,0.7s1.1,1.1,1.3,1.9h2.5c-0.2-1.4-0.8-2.6-1.8-3.5s-2.3-1.4-3.9-1.4c-1.8,0-3.3,0.6-4.5,1.8s-1.8,2.7-1.8,4.5c0,1.9,0.6,3.4,1.9,4.6s2.9,1.8,4.8,1.8c1.6,0,3-0.5,4.1-1.4s1.7-2.1,1.9-3.5h-2.5Z"/>
</svg> 