<svg xmlns="http://www.w3.org/2000/svg" viewBox="0 0 48 48">
  <path fill="#3178C6" d="M0,0H48V48H0Z"/>
  <path fill="#FFF" d="M22.2,28.9h5.1V26.6h-5.1v2.3Zm-1.2,5.2V13.8H18.7v4.5h-2.3V13.8H14v20.3h2.4v-4.5h2.3v4.5h2.5Zm13.4-1.2c0,1.8-0.5,3.3-1.4,4.5s-2.2,1.8-3.8,1.8c-1.8,0-3.3-0.7-4.4-2.2s-1.7-3.4-1.7-5.7c0-2.3,0.6-4.2,1.7-5.7s2.6-2.2,4.4-2.2c1.6,0,2.9,0.6,3.8,1.7s1.4,2.7,1.4,4.7h-2.5c0-1.1-0.2-2-0.7-2.6s-1.1-0.9-1.9-0.9c-0.8,0-1.5,0.4-2,1.1s-0.7,1.7-0.7,3.1c0,1.3,0.2,2.4,0.7,3.1s1.2,1.1,2,1.1c0.8,0,1.4-0.3,1.9-0.9s0.7-1.5,0.7-2.6h2.5Z"/>
</svg> 